<svg xmlns="http://www.w3.org/2000/svg" version="1.1" xmlns:xlink="http://www.w3.org/1999/xlink" width="1000" height="1000"><metadata><rdf:RDF xmlns:rdf="http://www.w3.org/1999/02/22-rdf-syntax-ns#" xmlns:dc="http://purl.org/dc/elements/1.1/"><rdf:Description><dc:creator>RealFaviconGenerator</dc:creator><dc:source>https://realfavicongenerator.net</dc:source></rdf:Description></rdf:RDF></metadata><g clip-path="url(#SvgjsClipPath1323)"><rect width="1000" height="1000" fill="#ffffff"></rect><g transform="matrix(200,0,0,200,0,0)"><svg xmlns="http://www.w3.org/2000/svg" viewBox="0 0 5 5" fill="none" shape-rendering="crispEdges" width="5" height="5"><metadata xmlns:rdf="http://www.w3.org/1999/02/22-rdf-syntax-ns#" xmlns:xsi="http://www.w3.org/2001/XMLSchema-instance" xmlns:dc="http://purl.org/dc/elements/1.1/" xmlns:dcterms="http://purl.org/dc/terms/"><rdf:rdf><rdf:description><dc:title>Identicon</dc:title><dc:creator>DiceBear</dc:creator><dc:source xsi:type="dcterms:URI">https://www.dicebear.com</dc:source><dcterms:license xsi:type="dcterms:URI">https://creativecommons.org/publicdomain/zero/1.0/</dcterms:license><dc:rights>„Identicon” (https://www.dicebear.com) by „DiceBear”, licensed under „CC0 1.0” (https://creativecommons.org/publicdomain/zero/1.0/)</dc:rights></rdf:description></rdf:rdf></metadata><mask id="viewboxMask"><rect width="5" height="5" rx="0" ry="0" x="0" y="0" fill="#fff"></rect></mask><g mask="url(#viewboxMask)"><path d="M2 0H0v1h2V0ZM5 0H3v1h2V0Z" fill="#8e24aa"></path><path d="M2 1H1v1h1V1ZM4 1H3v1h1V1Z" fill="#8e24aa"></path><path d="M1 2H0v1h1V2ZM5 2H4v1h1V2Z" fill="#8e24aa"></path><path fill="#8e24aa" d="M1 3h3v1H1z"></path><path fill="#8e24aa" d="M2 4h1v1H2z"></path></g></svg></g></g><defs><clipPath id="SvgjsClipPath1323"><rect width="1000" height="1000" x="0" y="0" rx="0" ry="0"></rect></clipPath></defs></svg>